<svg width="18" height="18" viewBox="0 0 18 18" fill="none" xmlns="http://www.w3.org/2000/svg">
<path d="M0.75 3C0.75 2.40326 0.987053 1.83097 1.40901 1.40901C1.83097 0.987053 2.40326 0.75 3 0.75H5.25C5.84674 0.75 6.41903 0.987053 6.84099 1.40901C7.26295 1.83097 7.5 2.40326 7.5 3V5.25C7.5 5.84674 7.26295 6.41903 6.84099 6.84099C6.41903 7.26295 5.84674 7.5 5.25 7.5H3C2.40326 7.5 1.83097 7.26295 1.40901 6.84099C0.987053 6.41903 0.75 5.84674 0.75 5.25V3ZM0.75 12.75C0.75 12.1533 0.987053 11.581 1.40901 11.159C1.83097 10.7371 2.40326 10.5 3 10.5H5.25C5.84674 10.5 6.41903 10.7371 6.84099 11.159C7.26295 11.581 7.5 12.1533 7.5 12.75V15C7.5 15.5967 7.26295 16.169 6.84099 16.591C6.41903 17.0129 5.84674 17.25 5.25 17.25H3C2.40326 17.25 1.83097 17.0129 1.40901 16.591C0.987053 16.169 0.75 15.5967 0.75 15V12.75ZM10.5 3C10.5 2.40326 10.7371 1.83097 11.159 1.40901C11.581 0.987053 12.1533 0.75 12.75 0.75H15C15.5967 0.75 16.169 0.987053 16.591 1.40901C17.0129 1.83097 17.25 2.40326 17.25 3V5.25C17.25 5.84674 17.0129 6.41903 16.591 6.84099C16.169 7.26295 15.5967 7.5 15 7.5H12.75C12.1533 7.5 11.581 7.26295 11.159 6.84099C10.7371 6.41903 10.5 5.84674 10.5 5.25V3ZM10.5 12.75C10.5 12.1533 10.7371 11.581 11.159 11.159C11.581 10.7371 12.1533 10.5 12.75 10.5H15C15.5967 10.5 16.169 10.7371 16.591 11.159C17.0129 11.581 17.25 12.1533 17.25 12.75V15C17.25 15.5967 17.0129 16.169 16.591 16.591C16.169 17.0129 15.5967 17.25 15 17.25H12.75C12.1533 17.25 11.581 17.0129 11.159 16.591C10.7371 16.169 10.5 15.5967 10.5 15V12.75Z" stroke="#151515" stroke-width="1.5" stroke-linecap="round" stroke-linejoin="round"/>
</svg>
