<?xml version="1.0" encoding="iso-8859-1"?>
<!-- Uploaded to: SVG Repo, www.svgrepo.com, Generator: SVG Repo Mixer Tools -->
<svg fill="#000000" version="1.1" id="Capa_1" xmlns="http://www.w3.org/2000/svg" xmlns:xlink="http://www.w3.org/1999/xlink" 
	 viewBox="0 0 60 60" xml:space="preserve">
<g>
	<g>
		<path d="M53.5,49L53.5,49V1c0-0.6-0.4-1-1-1h-45c-0.6,0-1,0.4-1,1v58c0,0.6,0.4,1,1,1h35c0.3,0,0.5-0.1,0.7-0.3l10-10
			c0.1-0.1,0.1-0.2,0.2-0.3v-0.1C53.5,49.2,53.5,49.1,53.5,49z M8.5,2h43v46h-9c-0.6,0-1,0.4-1,1v9h-33V2z M43.5,56.6V50h6.6
			l-3.3,3.3L43.5,56.6z"/>
		<path d="M13.5,44h33c0.6,0,1-0.4,1-1V7c0-0.6-0.4-1-1-1h-33c-0.6,0-1,0.4-1,1v36C12.5,43.6,12.9,44,13.5,44z M14.5,14h7v28h-7
			C14.5,42,14.5,22.1,14.5,14z M23.5,29h22v6h-22V29z M23.5,27v-6h22v6H23.5z M23.5,19v-5h22v5H23.5z M23.5,42v-5h22v5H23.5z
			 M45.5,12h-22V8h22V12z M21.5,8v4h-7c0-0.8,0-4,0-4H21.5z"/>
		<rect x="16.5" y="16" width="3" height="2"/>
		<rect x="16.5" y="23" width="3" height="2"/>
		<rect x="16.5" y="31" width="3" height="2"/>
		<rect x="16.5" y="38" width="3" height="2"/>
		<path d="M22.5,47h-9c-0.6,0-1,0.4-1,1v6c0,0.6,0.4,1,1,1h9c0.6,0,1-0.4,1-1v-6C23.5,47.4,23.1,47,22.5,47z M21.5,53h-7v-4h7V53z"
			/>
		<rect x="26.5" y="48" width="7" height="2"/>
		<rect x="26.5" y="52" width="10" height="2"/>
	</g>
</g>
</svg>