<svg width="70" height="69" viewBox="0 0 70 69" fill="none" xmlns="http://www.w3.org/2000/svg">
<path d="M60.6052 9.69636C60.6052 9.09492 60.4868 8.49937 60.2567 7.9437C60.0266 7.38803 59.6892 6.88314 59.264 6.45784C58.8387 6.03255 58.3338 5.69518 57.7782 5.46501C57.2225 5.23485 56.627 5.11638 56.0255 5.11639H49.6356V2.08594C49.6356 1.53271 49.4158 1.00215 49.0246 0.610957C48.6334 0.219768 48.1028 0 47.5496 0C46.9964 0 46.4658 0.219768 46.0746 0.610957C45.6834 1.00215 45.4637 1.53271 45.4637 2.08594V5.11639H15.1417V2.08594C15.1417 1.53271 14.9219 1.00215 14.5308 0.610957C14.1396 0.219768 13.609 0 13.0558 0C12.5026 0 11.972 0.219768 11.5808 0.610957C11.1896 1.00215 10.9698 1.53271 10.9698 2.08594V5.11639H4.57962C3.97819 5.11638 3.38264 5.23485 2.82699 5.46501C2.27134 5.69518 1.76647 6.03255 1.34121 6.45784C0.915944 6.88314 0.578619 7.38803 0.348494 7.9437C0.118368 8.49937 -5.02073e-05 9.09492 1.59687e-08 9.69636V12.2457H60.6052V9.69636Z" fill="white"/>
<path d="M50.9493 31.7308C47.2742 31.7308 43.6816 32.8206 40.6259 34.8624C37.5701 36.9043 35.1885 39.8064 33.7821 43.2017C32.3757 46.5971 32.0077 50.3333 32.7248 53.9378C33.4418 57.5423 35.2115 60.8533 37.8103 63.452C40.409 66.0506 43.7199 67.8204 47.3245 68.5373C50.929 69.2543 54.6651 68.8863 58.0605 67.4798C61.4559 66.0734 64.358 63.6917 66.3997 60.636C68.4415 57.5802 69.5313 53.9876 69.5313 50.3125C69.5313 47.8723 69.0506 45.4559 68.1168 43.2015C67.183 40.947 65.8142 38.8986 64.0887 37.1731C62.3632 35.4476 60.3148 34.0789 58.0603 33.1451C55.8058 32.2113 53.3895 31.7307 50.9493 31.7308ZM61.9928 53.0081C61.9929 53.166 61.9618 53.3223 61.9014 53.4682C61.841 53.614 61.7524 53.7466 61.6408 53.8582C61.5291 53.9698 61.3966 54.0584 61.2507 54.1188C61.1049 54.1792 60.9485 54.2103 60.7906 54.2103H54.8472V60.1537C54.8471 60.4725 54.7204 60.7783 54.495 61.0037C54.2696 61.2291 53.9638 61.3558 53.645 61.3559H48.254C47.9351 61.3559 47.6294 61.2292 47.4039 61.0038C47.1784 60.7783 47.0518 60.4725 47.0518 60.1537V54.2103H41.1083C40.9505 54.2103 40.7941 54.1792 40.6482 54.1188C40.5024 54.0584 40.3698 53.9698 40.2582 53.8582C40.1466 53.7466 40.058 53.614 39.9976 53.4682C39.9372 53.3223 39.9061 53.166 39.9061 53.0081V47.617C39.9061 47.4592 39.9372 47.3028 39.9976 47.1569C40.058 47.0111 40.1466 46.8785 40.2582 46.7669C40.3698 46.6553 40.5024 46.5667 40.6483 46.5063C40.7941 46.4459 40.9505 46.4148 41.1083 46.4148H47.0518V40.4714C47.0518 40.3135 47.0829 40.1572 47.1433 40.0113C47.2037 39.8655 47.2922 39.7329 47.4039 39.6213C47.5155 39.5096 47.6481 39.4211 47.7939 39.3607C47.9398 39.3003 48.0961 39.2692 48.254 39.2692H53.6451C53.9639 39.2692 54.2697 39.3959 54.4951 39.6213C54.7206 39.8468 54.8472 40.1526 54.8473 40.4714V46.4148H60.7907C60.9486 46.4148 61.1049 46.4459 61.2508 46.5063C61.3966 46.5667 61.5292 46.6553 61.6408 46.7669C61.7525 46.8785 61.841 47.0111 61.9014 47.1569C61.9618 47.3028 61.9929 47.4592 61.9929 47.617L61.9928 53.0081Z" fill="white"/>
<path d="M20.1478 52.1125V45.5131H28.7275C29.4841 41.9936 31.0672 38.7047 33.346 35.9179V33.6347H35.524C38.6035 30.7696 42.4191 28.8172 46.5443 27.9958V21.7564H54.4633V27.8594C56.5899 28.1899 58.6583 28.8233 60.6054 29.7402V16.4176H4.75087e-09V53.5662C-2.73892e-05 54.1677 0.118413 54.7632 0.348557 55.3189C0.578702 55.8746 0.916044 56.3795 1.34132 56.8048C1.7666 57.23 2.27148 57.5674 2.82714 57.7976C3.3828 58.0277 3.97836 58.1462 4.5798 58.1462H29.6149C28.8986 56.2047 28.4494 54.1749 28.2797 52.1125H20.1478ZM33.346 21.7564H41.2651V28.3554H33.346V21.7564ZM20.1478 21.7564H28.0666V28.3554H20.1478V21.7564ZM20.1478 33.6347H28.0666V40.2338H20.1478V33.6347ZM14.8686 52.1125H6.94965V45.5131H14.8687L14.8686 52.1125ZM14.8686 40.2338H6.94965V33.6347H14.8687L14.8686 40.2338Z" fill="white"/>
</svg>
