<svg width="36" height="68" viewBox="0 0 36 68" fill="none" xmlns="http://www.w3.org/2000/svg">
<path d="M22.001 48.6903C21.984 52.2921 19.0455 55.2 15.4402 55.1797C11.8352 55.1593 8.93051 52.2244 8.95079 48.6191L9.17423 6.48952C9.18764 2.88771 12.1296 -0.0169414 15.7348 7.43796e-05C19.3367 0.0203371 22.2413 2.95544 22.2209 6.5607L22.001 48.6903Z" fill="white"/>
<path d="M30.911 52.6306C30.8635 61.165 23.9103 68.047 15.3728 67.9998C6.83833 67.9556 -0.0439175 60.999 0.000211031 52.4647C0.044093 43.9305 7.00088 37.0448 15.5385 37.0923C24.0694 37.1364 30.9549 44.093 30.911 52.6306Z" fill="white"/>
<path d="M18.592 48.328C18.5786 50.0476 17.1804 51.4356 15.4607 51.4254C13.7411 51.4154 12.3531 50.014 12.3631 48.2941L12.5798 7.21743C12.59 5.50116 13.9916 4.11317 15.7113 4.11977C17.4309 4.13001 18.8155 5.53163 18.8053 7.25133L18.592 48.328Z" fill="#578FFF"/>
<path d="M26.273 52.6035C26.2428 58.5818 21.3748 63.3991 15.3961 63.3652C9.42472 63.3347 4.60424 58.4635 4.63787 52.4917C4.66833 46.5135 9.53633 41.6962 15.5114 41.7266C21.4864 41.7605 26.3035 46.6319 26.273 52.6035Z" fill="#DC4D61"/>
<path d="M26.273 52.6035C26.2428 58.5818 21.3748 63.3991 15.3961 63.3652C9.42472 63.3347 4.60424 58.4635 4.63787 52.4917C4.66833 46.5135 9.53633 41.6962 15.5114 41.7266C21.4864 41.7605 26.3035 46.6319 26.273 52.6035Z" fill="#DC4D61"/>
<path d="M12.4952 23.1078L12.3631 48.2941C12.3531 50.014 13.7411 51.4154 15.4607 51.4254C17.1804 51.4356 18.5786 50.0476 18.592 48.3279L18.7241 23.1417L12.4952 23.1078Z" fill="#DC4D61"/>
<path d="M12.4951 23.1078L12.3935 42.1838C7.93532 43.4972 4.66174 47.6001 4.63787 52.4918C4.60424 58.4024 9.32309 63.2232 15.2102 63.355L15.2743 51.4154L15.3252 41.7369L15.4234 23.1248L12.4951 23.1078Z" fill="#C43552"/>
<path d="M19.6686 24.7699L17.3666 24.7565V24.225L19.6754 24.2384L19.6686 24.7699Z" fill="white"/>
<path d="M17.3595 26.3328L17.3563 26.8676L19.6583 26.8812L19.6615 26.3464L17.3595 26.3328Z" fill="white"/>
<path d="M19.6483 28.9914L17.3461 28.9778V28.4463L19.6515 28.4599L19.6483 28.9914Z" fill="white"/>
<path d="M19.6381 31.1037L17.3326 31.0903L17.336 30.5588L19.6381 30.5724V31.1037Z" fill="white"/>
<path d="M19.6279 33.2163L17.3226 33.2025V32.6712L19.6313 32.6815L19.6279 33.2163Z" fill="white"/>
<path d="M19.6142 35.3252L17.309 35.315L17.3158 34.7837L19.6176 34.7937L19.6142 35.3252Z" fill="white"/>
<path d="M19.6042 37.4376L17.2987 37.4274L17.3021 36.8925L19.6073 36.9061L19.6042 37.4376Z" fill="white"/>
<path d="M19.5941 39.5467L17.2887 39.533L17.2921 39.005L19.5941 39.0152V39.5467Z" fill="white"/>
<path d="M19.5804 41.6589L17.2786 41.6489V41.1172L19.584 41.1274L19.5804 41.6589Z" fill="white"/>
<path d="M27.1008 36.7639C26.9197 36.7639 26.737 36.7436 26.5557 36.703C25.6231 36.5 24.9732 35.8194 24.8192 34.8817C24.7851 34.6684 24.9291 34.4655 25.1443 34.4314C25.3609 34.3977 25.5588 34.5432 25.5944 34.7532C25.6943 35.3727 26.1071 35.8025 26.7233 35.938C27.3225 36.0667 28.1554 35.8805 28.6462 35.1561C28.9915 34.6346 28.9744 33.8156 28.6021 33.2907C28.2688 32.8168 27.7253 32.6576 27.0196 32.8338C26.8281 32.8811 26.6285 32.7795 26.5574 32.5967C26.4865 32.4106 26.5642 32.2005 26.7386 32.1094C27.431 31.7402 27.9946 31.3272 28.404 30.9685C27.766 30.9482 27.1144 30.9514 26.4814 30.9514C26.1173 30.955 25.7586 30.9582 25.4031 30.955C25.1864 30.9514 25.0122 30.7754 25.0139 30.5588C25.0156 30.3422 25.1915 30.1694 25.4065 30.1694C25.4065 30.1694 25.4082 30.1694 25.4099 30.1694C25.7637 30.1694 26.1192 30.1694 26.4779 30.1694C27.4003 30.1626 28.3753 30.1594 29.3146 30.2269C29.4586 30.2372 29.5856 30.3285 29.6448 30.4606C29.704 30.5927 29.6838 30.7484 29.5956 30.86C29.3351 31.1919 28.8782 31.6386 28.2485 32.0923C28.6479 32.2244 28.9898 32.4749 29.2437 32.837C29.8073 33.636 29.8293 34.7938 29.2978 35.5925C28.8002 36.3306 27.9622 36.7639 27.1008 36.7639Z" fill="#AAC8F9"/>
<path d="M34.3232 31.4185C34.225 31.4185 34.1336 31.4051 34.0506 31.3746C33.6546 31.2392 33.4143 30.8295 33.4667 30.376C33.5142 29.9494 33.8171 29.6311 34.2199 29.5873C34.2336 29.5873 34.3216 29.5838 34.3216 29.5838C34.7734 29.5838 35.1425 29.8444 35.2524 30.2303C35.3608 30.6368 35.1949 31.0396 34.8227 31.2833C34.6839 31.3712 34.5045 31.4185 34.3232 31.4185Z" fill="#AAC8F9"/>
<path d="M31.7132 33.5987C31.5304 33.5987 31.3645 33.5751 31.219 33.5207C30.4997 33.2703 30.063 32.4985 30.1612 31.6488C30.2524 30.8497 30.7891 30.2812 31.5287 30.1999C32.4225 30.1051 33.2486 30.6061 33.4684 31.3815C33.6765 32.1364 33.3585 32.8913 32.6358 33.355C32.3938 33.5073 32.05 33.5987 31.7132 33.5987ZM31.7471 30.9752C31.703 30.9752 31.6574 30.9752 31.6133 30.9818C31.0633 31.0396 30.9585 31.5776 30.9398 31.7402C30.8942 32.1364 31.0448 32.6306 31.4812 32.7829C31.6591 32.8472 32.0417 32.7997 32.2142 32.6949C32.3716 32.5899 32.8828 32.2073 32.7137 31.5913C32.5917 31.1648 32.1416 30.9752 31.7471 30.9752Z" fill="#AAC8F9"/>
<path d="M31.6489 36.7875C31.4391 36.7875 31.241 36.7571 31.0751 36.6995C30.2321 36.4016 29.7243 35.5011 29.8396 34.5025C29.948 33.5682 30.5742 32.9047 31.434 32.8133C32.485 32.6949 33.4499 33.2873 33.7021 34.1913C33.9458 35.0747 33.5701 35.9615 32.7238 36.5031C32.4477 36.6793 32.0468 36.7875 31.6489 36.7875ZM31.6896 33.5851C31.6319 33.5851 31.5744 33.5885 31.5185 33.5921C30.9346 33.6565 30.6705 34.1504 30.6198 34.5941C30.5606 35.1085 30.7585 35.755 31.3358 35.9583C31.4171 35.9853 31.527 36.0024 31.6489 36.0024C31.8943 36.0024 32.1501 35.938 32.3007 35.8432C32.8558 35.4877 33.0961 34.9494 32.9455 34.4009C32.7898 33.8358 32.2023 33.5851 31.6896 33.5851Z" fill="#AAC8F9"/>
</svg>
