<svg width="71" height="71" viewBox="0 0 71 71" fill="none" xmlns="http://www.w3.org/2000/svg">
<path d="M69.6677 20.6579L50.0005 0.99079C49.3615 0.351813 48.5122 0 47.6086 0C46.7049 0 45.8556 0.351963 45.2167 0.99079C44.5777 1.62977 44.2258 2.47923 44.2258 3.38297C44.2258 4.15816 44.4865 4.89261 44.9664 5.49219L4.17622 46.2849C-1.3922 51.8538 -1.39205 60.9149 4.17652 66.4838C6.87406 69.1815 10.4606 70.6674 14.2754 70.6674C18.0903 70.6674 21.6768 69.1816 24.3742 66.4841L65.1644 25.6914C65.762 26.1708 66.4984 26.4327 67.2756 26.4327C68.1791 26.4327 69.0286 26.0808 69.6676 25.442C70.9864 24.123 70.9864 21.9769 69.6677 20.6579ZM68.0729 23.8472C67.86 24.0603 67.5767 24.1775 67.2756 24.1775C66.9744 24.1775 66.6912 24.0603 66.4783 23.8472L66.1245 23.4936C66.0801 23.4229 66.0281 23.3557 65.9666 23.2942C65.9051 23.2327 65.8378 23.1807 65.7671 23.1364L53.7207 11.0901C53.2803 10.6499 52.5665 10.6496 52.1259 11.0901C51.6856 11.5304 51.6856 12.2444 52.1259 12.6847L63.5539 24.1126L22.7795 64.8894C20.508 67.161 17.4878 68.412 14.2755 68.412C11.063 68.412 8.04286 67.1608 5.77126 64.8891C1.08192 60.1994 1.08177 52.569 5.77096 47.8795L46.5523 7.0958L48.962 9.47881C49.4047 9.91662 50.1185 9.91286 50.5566 9.46994C50.9944 9.02716 50.9905 8.31316 50.5476 7.87535L47.5098 4.87111C47.468 4.80706 47.4192 4.74632 47.3629 4.69009C47.3041 4.6313 47.2401 4.58094 47.1729 4.53779L46.8112 4.18011C46.5983 3.96707 46.481 3.68396 46.481 3.38282C46.481 3.08167 46.5983 2.79842 46.8113 2.58538C47.0242 2.37233 47.3073 2.25506 47.6086 2.25506C47.9097 2.25506 48.193 2.37233 48.4059 2.58538L68.073 22.2525C68.5126 22.6922 68.5126 23.4076 68.0729 23.8472Z" fill="white"/>
<path d="M41.7693 41.1136C40.755 40.0995 39.8051 39.929 39.1113 39.8043C38.5204 39.6983 38.1638 39.6343 37.6499 39.1203C37.1359 38.6064 37.0718 38.2496 36.966 37.6589C36.8415 36.9652 36.671 36.0151 35.6569 35.001C34.6428 33.9869 33.6927 33.8163 32.999 33.6918C32.4082 33.5857 32.0514 33.5218 31.5374 33.0076C31.0233 32.4935 30.9593 32.1368 30.8531 31.5458C30.7286 30.8521 30.5582 29.902 29.5439 28.8878C29.3325 28.6762 29.0457 28.5574 28.7466 28.5574C28.4476 28.5574 28.1607 28.6764 27.9492 28.8878L19.2519 37.586C18.8115 38.0263 18.8117 38.7403 19.2519 39.1807C19.6924 39.6211 20.4062 39.6209 20.8466 39.1807L28.5411 31.4855C28.576 31.6253 28.603 31.7753 28.6333 31.9443C28.7577 32.638 28.9282 33.5881 29.9425 34.6023C30.9566 35.6166 31.9066 35.7871 32.6003 35.9115C33.1912 36.0177 33.548 36.0816 34.062 36.5958C34.5759 37.1097 34.6399 37.4664 34.7459 38.0573C34.8704 38.751 35.0408 39.7011 36.0549 40.7151C37.069 41.7292 38.0188 41.8997 38.7127 42.0244C38.8817 42.0547 39.0316 42.0817 39.1716 42.1165L19.5905 61.6994C18.1734 63.1166 16.2858 63.8972 14.2752 63.8972C12.2648 63.8972 10.3772 63.1168 8.96014 61.6994C6.02926 58.7684 6.02926 53.9994 8.96014 51.0684L17.6576 42.3702C18.098 41.9298 18.0978 41.2158 17.6576 40.7754C17.2171 40.3351 16.5032 40.3352 16.0629 40.7754L7.3654 49.4736C3.55545 53.2839 3.55545 59.4838 7.3654 63.294C9.20851 65.1373 11.6625 66.1523 14.2752 66.1523C16.8881 66.1523 19.3421 65.1373 21.1852 63.294L41.7102 42.7671C42.3559 42.1212 42.0572 41.4304 41.8088 41.1552C41.7962 41.1411 41.7828 41.1271 41.7693 41.1136Z" fill="#B8D9EE"/>
<path d="M50.9384 24.2387C50.4978 24.6791 50.4978 25.3931 50.9382 25.8335C51.378 26.2731 51.378 26.9884 50.9382 27.428C50.7253 27.6411 50.4422 27.7582 50.1409 27.7582C49.8398 27.7582 49.5565 27.6409 49.3436 27.4279C48.9039 26.9883 48.9039 26.2729 49.3435 25.8333C49.784 25.3929 49.784 24.6789 49.3436 24.2386C48.9033 23.7984 48.1893 23.7982 47.749 24.2386C46.43 25.5574 46.43 27.7035 47.7489 29.0226C48.3879 29.6616 49.2372 30.0134 50.1409 30.0134C51.0446 30.0134 51.8941 29.6616 52.5329 29.0226C53.8516 27.7038 53.8518 25.5577 52.5329 24.2387C52.0927 23.7987 51.3787 23.7985 50.9384 24.2387Z" fill="#B8D9EE"/>
<path d="M37.6493 30.2788C38.5531 30.2788 39.4025 29.927 40.0414 29.288C40.6802 28.649 41.0322 27.7996 41.032 26.896C41.032 25.9924 40.68 25.1429 40.0411 24.5039C39.6009 24.0636 38.8869 24.0637 38.4465 24.5039C38.0061 24.9443 38.0061 25.6583 38.4466 26.0987C38.6595 26.3117 38.7768 26.5948 38.7768 26.896C38.7768 27.1971 38.6597 27.4802 38.4466 27.6933C38.2337 27.9063 37.9506 28.0234 37.6493 28.0234C37.3482 28.0234 37.0649 27.9061 36.8521 27.6931C36.639 27.4801 36.5217 27.197 36.5217 26.8958C36.5217 26.5947 36.639 26.3114 36.8521 26.0985C37.2924 25.6582 37.2924 24.9442 36.8521 24.5039C36.4115 24.0636 35.6977 24.0636 35.2573 24.5039C33.9383 25.8228 33.9383 27.969 35.2573 29.2878C35.8961 29.9268 36.7456 30.2788 37.6493 30.2788Z" fill="#B8D9EE"/>
</svg>
